<?xml version="1.0" encoding="UTF-8" standalone="no"?>
<!DOCTYPE svg PUBLIC "-//W3C//DTD SVG 1.1//EN" "http://www.w3.org/Graphics/SVG/1.1/DTD/svg11.dtd">
<svg xmlns="http://www.w3.org/2000/svg" version="1.1" viewBox="0.00 0.00 1024.00 1024.00">
<g stroke-width="2.00" fill="none" stroke-linecap="butt">
<path stroke="#80b0cd" vector-effect="non-scaling-stroke" d="
  M 748.08 300.00
  Q 715.91 335.64 676.45 360.70
  C 636.19 386.26 592.39 404.90 545.13 419.95
  Q 527.62 425.53 514.45 429.09
  Q 474.14 439.98 448.74 445.47
  Q 416.55 452.43 388.27 458.31
  Q 382.35 459.54 362.45 464.96
  Q 327.00 474.61 302.55 500.29
  Q 289.49 514.00 282.62 528.18
  Q 277.63 538.46 272.63 555.21"
/>
<path stroke="#7b8e9b" vector-effect="non-scaling-stroke" d="
  M 272.63 555.21
  Q 265.28 584.13 269.90 613.76
  C 273.97 639.88 286.42 665.74 302.73 686.34
  C 313.64 700.11 325.85 712.59 340.06 722.69
  C 358.08 735.48 376.75 744.82 397.44 750.97
  Q 408.18 754.16 416.54 755.86
  Q 462.06 765.16 510.69 752.48
  C 526.14 748.45 540.51 742.20 554.47 734.89
  Q 563.75 730.03 573.15 722.36
  Q 574.24 721.48 574.73 720.61
  Q 575.40 719.45 574.12 719.83
  C 568.17 721.62 562.13 723.54 556.17 724.71
  Q 538.13 728.24 521.74 726.88
  C 504.29 725.44 483.88 718.90 473.35 704.01
  C 468.14 696.66 476.01 691.18 482.78 692.67
  Q 495.07 695.37 508.07 697.20
  C 537.18 701.30 566.32 698.93 594.69 690.41
  C 604.54 687.45 614.02 682.97 622.94 678.17
  Q 633.40 672.54 642.71 665.23
  Q 647.48 661.47 652.38 656.53
  Q 656.68 652.19 661.20 646.98
  C 666.67 640.71 672.27 633.56 675.32 625.54
  Q 675.74 624.44 675.32 623.41
  A 1.39 1.38 -28.5 0 0 673.24 622.80
  Q 663.43 629.67 654.30 633.88
  Q 627.14 646.42 598.45 651.61
  Q 588.53 653.41 579.65 654.84"
/>
<path stroke="#80b0cd" vector-effect="non-scaling-stroke" d="
  M 579.65 654.84
  Q 554.49 657.75 530.25 657.75
  Q 512.75 657.75 495.26 657.61
  Q 478.77 657.47 465.55 667.05
  Q 462.36 669.36 461.76 673.20"
/>
<path stroke="#7b8e9b" vector-effect="non-scaling-stroke" d="
  M 461.76 673.20
  Q 452.82 664.48 440.87 668.43"
/>
<path stroke="#80b0cd" vector-effect="non-scaling-stroke" d="
  M 440.87 668.43
  C 442.85 660.14 449.92 652.68 456.73 648.21
  Q 466.53 641.76 478.24 639.82"
/>
<path stroke="#7b8e9b" vector-effect="non-scaling-stroke" d="
  M 478.24 639.82
  Q 485.99 638.79 488.01 638.78
  Q 506.00 638.64 524.00 638.67
  Q 566.81 638.72 608.51 629.71
  C 628.44 625.41 648.07 618.26 665.09 608.23
  Q 688.27 594.58 701.63 578.89
  Q 709.70 569.42 716.51 559.00
  Q 723.71 547.98 728.37 535.23
  C 728.95 533.66 729.29 530.75 726.85 530.76
  Q 725.95 530.77 724.85 531.76
  Q 718.74 537.28 715.31 539.83
  Q 689.36 559.04 659.74 570.19
  Q 645.96 575.38 629.74 579.91
  Q 629.18 580.07 628.07 580.79"
/>
<path stroke="#80b0cd" vector-effect="non-scaling-stroke" d="
  M 628.07 580.79
  Q 627.64 580.67 627.48 580.72
  C 613.78 585.31 599.14 588.23 585.11 591.08
  Q 569.81 594.18 543.65 598.02
  C 525.84 600.64 507.50 602.07 490.33 604.35
  C 470.68 606.97 450.62 611.48 435.53 625.29
  C 418.82 640.59 413.39 661.38 422.83 682.39
  Q 429.69 697.66 442.81 709.16"
/>
<path stroke="#7b8e9b" vector-effect="non-scaling-stroke" d="
  M 442.81 709.16
  Q 454.05 719.90 468.75 725.00
  Q 468.93 725.06 468.87 725.25
  L 468.87 725.26
  Q 468.83 725.38 468.71 725.35
  Q 461.18 723.40 453.79 721.15
  Q 445.80 718.71 439.47 715.56
  Q 422.05 706.87 409.15 692.28"
/>
<path stroke="#80b0cd" vector-effect="non-scaling-stroke" d="
  M 409.15 692.28
  Q 398.59 678.48 397.13 660.49
  Q 395.83 644.53 403.32 630.47
  Q 415.00 608.57 436.10 597.57
  Q 449.51 590.57 464.98 587.99
  Q 467.89 587.51 470.72 586.74"
/>
<path stroke="#7b8e9b" vector-effect="non-scaling-stroke" d="
  M 470.72 586.74
  Q 494.47 583.63 518.32 581.04
  C 535.64 579.17 553.95 576.62 570.23 573.97
  Q 598.01 569.46 624.98 562.47
  C 658.59 553.76 690.23 538.61 717.92 518.15
  Q 726.36 511.91 733.54 505.21
  Q 757.47 482.90 771.75 451.16
  Q 782.13 428.09 784.32 400.93
  Q 784.71 396.04 784.53 391.02
  C 784.49 389.93 783.85 388.90 782.73 388.68
  A 1.48 1.47 18.2 0 0 781.10 389.50
  Q 776.28 399.81 770.01 408.68
  Q 748.63 438.93 721.04 461.71
  C 704.35 475.49 685.94 488.11 666.57 498.32
  Q 660.76 501.38 655.41 504.23"
/>
<path stroke="#80b0cd" vector-effect="non-scaling-stroke" d="
  M 655.41 504.23
  Q 621.52 519.69 591.00 528.29
  Q 573.60 533.18 541.46 541.15
  Q 531.92 543.51 522.01 545.65
  C 508.83 548.50 496.00 551.41 482.43 554.17
  Q 462.60 558.20 443.24 563.13
  Q 431.75 566.05 420.45 570.86
  C 395.85 581.35 370.81 604.89 371.19 633.50
  Q 371.20 633.96 370.84 634.24
  L 370.53 634.48"
/>
<path stroke="#7b8e9b" vector-effect="non-scaling-stroke" d="
  M 370.53 634.48
  Q 370.28 634.60 370.07 634.54"
/>
<path stroke="#80b0cd" vector-effect="non-scaling-stroke" d="
  M 370.07 634.54
  C 360.87 634.41 355.61 625.42 355.05 617.31
  C 353.39 593.33 373.13 572.04 391.70 560.20
  C 404.04 552.34 418.00 547.64 432.97 544.20
  Q 446.32 541.13 457.54 538.84
  Q 485.86 533.07 517.46 526.96
  Q 534.78 523.61 572.71 514.35
  C 585.26 511.29 597.60 507.46 610.49 503.42
  C 624.34 499.08 639.07 493.06 652.68 486.96
  Q 673.21 477.76 692.06 463.50
  C 704.28 454.27 715.24 443.79 723.21 431.10
  Q 723.61 430.46 723.66 429.74
  Q 723.75 428.48 722.36 428.25
  A 1.46 1.43 31.9 0 0 721.32 428.48
  C 714.42 433.18 707.56 438.29 700.26 442.65
  Q 681.86 453.65 663.20 461.20
  Q 650.93 466.16 634.73 471.93"
/>
<path stroke="#7b8e9b" vector-effect="non-scaling-stroke" d="
  M 634.73 471.93
  Q 649.69 464.86 655.68 461.67
  Q 682.49 447.40 705.57 431.58
  Q 721.35 420.76 737.21 406.79"
/>
<path stroke="#80b0cd" vector-effect="non-scaling-stroke" d="
  M 737.21 406.79
  Q 742.87 402.43 747.08 396.96"
/>
<path stroke="#7b8e9b" vector-effect="non-scaling-stroke" d="
  M 747.08 396.96
  Q 774.79 368.51 788.08 332.28
  Q 800.46 298.54 791.94 263.88
  Q 789.06 252.17 783.22 241.68
  A 1.57 1.57 0.0 0 0 780.35 241.98
  Q 775.81 256.51 768.23 269.95
  Q 765.70 274.42 762.74 279.50
  Q 758.79 286.28 756.71 288.70
  Q 751.67 294.56 748.08 300.00"
/>
<path stroke="#0e4970" vector-effect="non-scaling-stroke" d="
  M 747.08 396.96
  Q 741.28 401.17 737.21 406.79"
/>
<path stroke="#0e4970" vector-effect="non-scaling-stroke" d="
  M 634.73 471.93
  Q 628.61 473.95 622.52 476.33
  Q 615.37 479.13 610.30 480.63
  Q 595.10 485.16 585.25 487.75
  Q 567.32 492.48 546.27 495.89
  Q 530.53 498.44 514.25 499.55"
/>
<path stroke="#7b8e9b" vector-effect="non-scaling-stroke" d="
  M 514.25 499.55
  Q 530.90 494.53 548.97 487.97
  Q 577.09 477.78 598.85 457.86
  Q 603.88 453.26 608.26 446.80"
/>
<path stroke="#0e4970" vector-effect="non-scaling-stroke" d="
  M 608.26 446.80
  C 631.33 435.15 652.48 422.11 672.81 406.13
  C 690.25 392.42 705.69 375.64 718.97 357.92
  Q 727.17 346.97 734.83 333.32
  Q 743.56 317.76 748.08 300.00"
/>
<path stroke="#0e4970" vector-effect="non-scaling-stroke" d="
  M 370.07 634.54
  Q 370.02 635.53 370.25 636.40
  Q 370.57 637.57 370.63 638.75
  Q 371.50 654.39 378.59 667.59
  Q 389.98 688.78 411.16 706.32
  Q 412.85 707.72 414.80 709.10
  Q 417.95 711.33 414.23 710.29
  C 399.37 706.15 384.54 698.25 371.88 690.38
  Q 362.12 684.30 353.83 676.12"
/>
<path stroke="#80b0cd" vector-effect="non-scaling-stroke" d="
  M 353.83 676.12
  Q 343.53 662.70 337.59 652.69
  Q 326.04 633.24 324.98 609.29
  Q 323.81 583.00 338.65 562.73
  Q 350.72 546.23 367.82 536.59
  Q 383.33 527.84 403.31 522.58
  Q 423.58 517.23 443.67 513.46
  Q 454.53 511.42 463.28 509.64
  Q 488.89 504.41 514.25 499.55"
/>
<path stroke="#80b0cd" vector-effect="non-scaling-stroke" d="
  M 608.26 446.80
  C 594.66 452.12 580.79 457.86 567.24 462.10
  Q 524.92 475.34 481.52 484.62
  Q 445.77 492.27 416.00 497.69
  Q 398.08 500.95 381.12 505.69
  C 365.25 510.12 350.69 517.36 338.38 528.14
  Q 325.60 539.33 317.93 551.45
  Q 301.45 577.55 305.77 607.52
  Q 308.56 626.85 318.56 641.92
  Q 326.00 653.13 337.17 663.84"
/>
<path stroke="#0e4970" vector-effect="non-scaling-stroke" d="
  M 337.17 663.84
  Q 334.19 663.35 330.25 660.10
  C 318.44 650.35 309.41 642.99 300.86 632.25
  Q 295.08 624.99 291.62 619.54
  Q 283.75 607.15 278.29 591.02
  Q 273.72 577.54 273.10 560.36
  Q 273.05 559.09 273.71 555.70
  Q 273.84 555.07 273.20 555.14
  L 272.63 555.21"
/>
<path stroke="#7b8e9b" vector-effect="non-scaling-stroke" d="
  M 353.83 676.12
  Q 344.35 670.47 337.17 663.84"
/>
<path stroke="#0e4970" vector-effect="non-scaling-stroke" d="
  M 442.81 709.16
  Q 439.04 703.08 436.25 697.19
  Q 433.57 691.55 433.38 686.89
  Q 433.07 679.15 436.72 671.96
  Q 437.48 670.48 440.87 668.43"
/>
<path stroke="#0e4970" vector-effect="non-scaling-stroke" d="
  M 461.76 673.20
  C 463.62 675.87 466.30 679.90 468.88 679.75
  Q 477.34 679.26 483.17 680.41
  Q 488.95 681.55 495.02 682.86
  Q 505.13 685.05 517.46 684.23
  Q 541.76 682.63 562.78 669.80
  Q 572.93 663.60 579.65 654.84"
/>
<path stroke="#0e4970" vector-effect="non-scaling-stroke" d="
  M 409.15 692.28
  Q 406.51 692.20 403.57 689.18
  Q 391.49 676.78 384.15 665.91
  Q 376.80 655.03 372.48 640.55
  C 371.94 638.74 372.24 636.64 371.47 635.00
  Q 371.31 634.66 370.95 634.61
  Q 370.73 634.58 370.53 634.48"
/>
<path stroke="#0e4970" vector-effect="non-scaling-stroke" d="
  M 478.24 639.82
  L 476.36 639.61
  Q 475.43 639.50 476.29 639.13
  Q 477.31 638.68 478.44 638.68
  Q 481.66 638.68 484.17 637.35
  Q 484.61 637.11 485.10 637.13
  Q 488.45 637.21 491.88 636.41
  C 502.42 633.93 513.34 632.41 524.27 630.66
  Q 537.76 628.49 550.21 626.42
  C 553.80 625.83 557.30 624.35 560.86 623.55
  Q 564.69 622.69 568.51 621.38
  Q 576.18 618.74 583.42 615.75
  Q 589.43 613.27 596.99 608.86
  C 608.58 602.11 617.87 593.66 627.08 583.34
  Q 628.33 581.94 628.07 580.79"
/>
<path stroke="#0e4970" vector-effect="non-scaling-stroke" d="
  M 470.72 586.74
  L 468.60 586.64
  A 0.57 0.56 -23.8 0 1 468.28 586.52
  Q 468.05 586.33 468.03 586.03
  Q 468.00 585.44 468.56 585.26
  Q 471.57 584.24 474.43 583.50
  Q 491.40 579.10 508.98 575.09
  Q 518.50 572.91 528.94 571.12
  Q 538.45 569.49 547.45 567.32
  Q 563.45 563.48 579.60 557.80
  Q 607.07 548.13 631.24 529.78
  Q 646.12 518.47 655.41 504.23"
/>
</g>
<path fill="#ecf4f8" d="
  M 0.00 0.00
  L 1024.00 0.00
  L 1024.00 1024.00
  L 0.00 1024.00
  L 0.00 0.00
  Z
  M 748.08 300.00
  Q 715.91 335.64 676.45 360.70
  C 636.19 386.26 592.39 404.90 545.13 419.95
  Q 527.62 425.53 514.45 429.09
  Q 474.14 439.98 448.74 445.47
  Q 416.55 452.43 388.27 458.31
  Q 382.35 459.54 362.45 464.96
  Q 327.00 474.61 302.55 500.29
  Q 289.49 514.00 282.62 528.18
  Q 277.63 538.46 272.63 555.21
  Q 265.28 584.13 269.90 613.76
  C 273.97 639.88 286.42 665.74 302.73 686.34
  C 313.64 700.11 325.85 712.59 340.06 722.69
  C 358.08 735.48 376.75 744.82 397.44 750.97
  Q 408.18 754.16 416.54 755.86
  Q 462.06 765.16 510.69 752.48
  C 526.14 748.45 540.51 742.20 554.47 734.89
  Q 563.75 730.03 573.15 722.36
  Q 574.24 721.48 574.73 720.61
  Q 575.40 719.45 574.12 719.83
  C 568.17 721.62 562.13 723.54 556.17 724.71
  Q 538.13 728.24 521.74 726.88
  C 504.29 725.44 483.88 718.90 473.35 704.01
  C 468.14 696.66 476.01 691.18 482.78 692.67
  Q 495.07 695.37 508.07 697.20
  C 537.18 701.30 566.32 698.93 594.69 690.41
  C 604.54 687.45 614.02 682.97 622.94 678.17
  Q 633.40 672.54 642.71 665.23
  Q 647.48 661.47 652.38 656.53
  Q 656.68 652.19 661.20 646.98
  C 666.67 640.71 672.27 633.56 675.32 625.54
  Q 675.74 624.44 675.32 623.41
  A 1.39 1.38 -28.5 0 0 673.24 622.80
  Q 663.43 629.67 654.30 633.88
  Q 627.14 646.42 598.45 651.61
  Q 588.53 653.41 579.65 654.84
  Q 554.49 657.75 530.25 657.75
  Q 512.75 657.75 495.26 657.61
  Q 478.77 657.47 465.55 667.05
  Q 462.36 669.36 461.76 673.20
  Q 452.82 664.48 440.87 668.43
  C 442.85 660.14 449.92 652.68 456.73 648.21
  Q 466.53 641.76 478.24 639.82
  Q 485.99 638.79 488.01 638.78
  Q 506.00 638.64 524.00 638.67
  Q 566.81 638.72 608.51 629.71
  C 628.44 625.41 648.07 618.26 665.09 608.23
  Q 688.27 594.58 701.63 578.89
  Q 709.70 569.42 716.51 559.00
  Q 723.71 547.98 728.37 535.23
  C 728.95 533.66 729.29 530.75 726.85 530.76
  Q 725.95 530.77 724.85 531.76
  Q 718.74 537.28 715.31 539.83
  Q 689.36 559.04 659.74 570.19
  Q 645.96 575.38 629.74 579.91
  Q 629.18 580.07 628.07 580.79
  Q 627.64 580.67 627.48 580.72
  C 613.78 585.31 599.14 588.23 585.11 591.08
  Q 569.81 594.18 543.65 598.02
  C 525.84 600.64 507.50 602.07 490.33 604.35
  C 470.68 606.97 450.62 611.48 435.53 625.29
  C 418.82 640.59 413.39 661.38 422.83 682.39
  Q 429.69 697.66 442.81 709.16
  Q 454.05 719.90 468.75 725.00
  Q 468.93 725.06 468.87 725.25
  L 468.87 725.26
  Q 468.83 725.38 468.71 725.35
  Q 461.18 723.40 453.79 721.15
  Q 445.80 718.71 439.47 715.56
  Q 422.05 706.87 409.15 692.28
  Q 398.59 678.48 397.13 660.49
  Q 395.83 644.53 403.32 630.47
  Q 415.00 608.57 436.10 597.57
  Q 449.51 590.57 464.98 587.99
  Q 467.89 587.51 470.72 586.74
  Q 494.47 583.63 518.32 581.04
  C 535.64 579.17 553.95 576.62 570.23 573.97
  Q 598.01 569.46 624.98 562.47
  C 658.59 553.76 690.23 538.61 717.92 518.15
  Q 726.36 511.91 733.54 505.21
  Q 757.47 482.90 771.75 451.16
  Q 782.13 428.09 784.32 400.93
  Q 784.71 396.04 784.53 391.02
  C 784.49 389.93 783.85 388.90 782.73 388.68
  A 1.48 1.47 18.2 0 0 781.10 389.50
  Q 776.28 399.81 770.01 408.68
  Q 748.63 438.93 721.04 461.71
  C 704.35 475.49 685.94 488.11 666.57 498.32
  Q 660.76 501.38 655.41 504.23
  Q 621.52 519.69 591.00 528.29
  Q 573.60 533.18 541.46 541.15
  Q 531.92 543.51 522.01 545.65
  C 508.83 548.50 496.00 551.41 482.43 554.17
  Q 462.60 558.20 443.24 563.13
  Q 431.75 566.05 420.45 570.86
  C 395.85 581.35 370.81 604.89 371.19 633.50
  Q 371.20 633.96 370.84 634.24
  L 370.53 634.48
  Q 370.28 634.60 370.07 634.54
  C 360.87 634.41 355.61 625.42 355.05 617.31
  C 353.39 593.33 373.13 572.04 391.70 560.20
  C 404.04 552.34 418.00 547.64 432.97 544.20
  Q 446.32 541.13 457.54 538.84
  Q 485.86 533.07 517.46 526.96
  Q 534.78 523.61 572.71 514.35
  C 585.26 511.29 597.60 507.46 610.49 503.42
  C 624.34 499.08 639.07 493.06 652.68 486.96
  Q 673.21 477.76 692.06 463.50
  C 704.28 454.27 715.24 443.79 723.21 431.10
  Q 723.61 430.46 723.66 429.74
  Q 723.75 428.48 722.36 428.25
  A 1.46 1.43 31.9 0 0 721.32 428.48
  C 714.42 433.18 707.56 438.29 700.26 442.65
  Q 681.86 453.65 663.20 461.20
  Q 650.93 466.16 634.73 471.93
  Q 649.69 464.86 655.68 461.67
  Q 682.49 447.40 705.57 431.58
  Q 721.35 420.76 737.21 406.79
  Q 742.87 402.43 747.08 396.96
  Q 774.79 368.51 788.08 332.28
  Q 800.46 298.54 791.94 263.88
  Q 789.06 252.17 783.22 241.68
  A 1.57 1.57 0.0 0 0 780.35 241.98
  Q 775.81 256.51 768.23 269.95
  Q 765.70 274.42 762.74 279.50
  Q 758.79 286.28 756.71 288.70
  Q 751.67 294.56 748.08 300.00
  Z"
/>
<path fill="#09273e" d="
  M 747.08 396.96
  Q 741.28 401.17 737.21 406.79
  Q 721.35 420.76 705.57 431.58
  Q 682.49 447.40 655.68 461.67
  Q 649.69 464.86 634.73 471.93
  Q 628.61 473.95 622.52 476.33
  Q 615.37 479.13 610.30 480.63
  Q 595.10 485.16 585.25 487.75
  Q 567.32 492.48 546.27 495.89
  Q 530.53 498.44 514.25 499.55
  Q 530.90 494.53 548.97 487.97
  Q 577.09 477.78 598.85 457.86
  Q 603.88 453.26 608.26 446.80
  C 631.33 435.15 652.48 422.11 672.81 406.13
  C 690.25 392.42 705.69 375.64 718.97 357.92
  Q 727.17 346.97 734.83 333.32
  Q 743.56 317.76 748.08 300.00
  Q 751.67 294.56 756.71 288.70
  Q 758.79 286.28 762.74 279.50
  Q 765.70 274.42 768.23 269.95
  Q 775.81 256.51 780.35 241.98
  A 1.57 1.57 0.0 0 1 783.22 241.68
  Q 789.06 252.17 791.94 263.88
  Q 800.46 298.54 788.08 332.28
  Q 774.79 368.51 747.08 396.96
  Z"
/>
<path fill="#136ba2" d="
  M 748.08 300.00
  Q 743.56 317.76 734.83 333.32
  Q 727.17 346.97 718.97 357.92
  C 705.69 375.64 690.25 392.42 672.81 406.13
  C 652.48 422.11 631.33 435.15 608.26 446.80
  C 594.66 452.12 580.79 457.86 567.24 462.10
  Q 524.92 475.34 481.52 484.62
  Q 445.77 492.27 416.00 497.69
  Q 398.08 500.95 381.12 505.69
  C 365.25 510.12 350.69 517.36 338.38 528.14
  Q 325.60 539.33 317.93 551.45
  Q 301.45 577.55 305.77 607.52
  Q 308.56 626.85 318.56 641.92
  Q 326.00 653.13 337.17 663.84
  Q 334.19 663.35 330.25 660.10
  C 318.44 650.35 309.41 642.99 300.86 632.25
  Q 295.08 624.99 291.62 619.54
  Q 283.75 607.15 278.29 591.02
  Q 273.72 577.54 273.10 560.36
  Q 273.05 559.09 273.71 555.70
  Q 273.84 555.07 273.20 555.14
  L 272.63 555.21
  Q 277.63 538.46 282.62 528.18
  Q 289.49 514.00 302.55 500.29
  Q 327.00 474.61 362.45 464.96
  Q 382.35 459.54 388.27 458.31
  Q 416.55 452.43 448.74 445.47
  Q 474.14 439.98 514.45 429.09
  Q 527.62 425.53 545.13 419.95
  C 592.39 404.90 636.19 386.26 676.45 360.70
  Q 715.91 335.64 748.08 300.00
  Z"
/>
<path fill="#09273e" d="
  M 470.72 586.74
  L 468.60 586.64
  A 0.57 0.56 -23.8 0 1 468.28 586.52
  Q 468.05 586.33 468.03 586.03
  Q 468.00 585.44 468.56 585.26
  Q 471.57 584.24 474.43 583.50
  Q 491.40 579.10 508.98 575.09
  Q 518.50 572.91 528.94 571.12
  Q 538.45 569.49 547.45 567.32
  Q 563.45 563.48 579.60 557.80
  Q 607.07 548.13 631.24 529.78
  Q 646.12 518.47 655.41 504.23
  Q 660.76 501.38 666.57 498.32
  C 685.94 488.11 704.35 475.49 721.04 461.71
  Q 748.63 438.93 770.01 408.68
  Q 776.28 399.81 781.10 389.50
  A 1.48 1.47 18.2 0 1 782.73 388.68
  C 783.85 388.90 784.49 389.93 784.53 391.02
  Q 784.71 396.04 784.32 400.93
  Q 782.13 428.09 771.75 451.16
  Q 757.47 482.90 733.54 505.21
  Q 726.36 511.91 717.92 518.15
  C 690.23 538.61 658.59 553.76 624.98 562.47
  Q 598.01 569.46 570.23 573.97
  C 553.95 576.62 535.64 579.17 518.32 581.04
  Q 494.47 583.63 470.72 586.74
  Z"
/>
<path fill="#136ba2" d="
  M 747.08 396.96
  Q 742.87 402.43 737.21 406.79
  Q 741.28 401.17 747.08 396.96
  Z"
/>
<path fill="#136ba2" d="
  M 370.07 634.54
  Q 370.02 635.53 370.25 636.40
  Q 370.57 637.57 370.63 638.75
  Q 371.50 654.39 378.59 667.59
  Q 389.98 688.78 411.16 706.32
  Q 412.85 707.72 414.80 709.10
  Q 417.95 711.33 414.23 710.29
  C 399.37 706.15 384.54 698.25 371.88 690.38
  Q 362.12 684.30 353.83 676.12
  Q 343.53 662.70 337.59 652.69
  Q 326.04 633.24 324.98 609.29
  Q 323.81 583.00 338.65 562.73
  Q 350.72 546.23 367.82 536.59
  Q 383.33 527.84 403.31 522.58
  Q 423.58 517.23 443.67 513.46
  Q 454.53 511.42 463.28 509.64
  Q 488.89 504.41 514.25 499.55
  Q 530.53 498.44 546.27 495.89
  Q 567.32 492.48 585.25 487.75
  Q 595.10 485.16 610.30 480.63
  Q 615.37 479.13 622.52 476.33
  Q 628.61 473.95 634.73 471.93
  Q 650.93 466.16 663.20 461.20
  Q 681.86 453.65 700.26 442.65
  C 707.56 438.29 714.42 433.18 721.32 428.48
  A 1.46 1.43 31.9 0 1 722.36 428.25
  Q 723.75 428.48 723.66 429.74
  Q 723.61 430.46 723.21 431.10
  C 715.24 443.79 704.28 454.27 692.06 463.50
  Q 673.21 477.76 652.68 486.96
  C 639.07 493.06 624.34 499.08 610.49 503.42
  C 597.60 507.46 585.26 511.29 572.71 514.35
  Q 534.78 523.61 517.46 526.96
  Q 485.86 533.07 457.54 538.84
  Q 446.32 541.13 432.97 544.20
  C 418.00 547.64 404.04 552.34 391.70 560.20
  C 373.13 572.04 353.39 593.33 355.05 617.31
  C 355.61 625.42 360.87 634.41 370.07 634.54
  Z"
/>
<path fill="#ecf4f8" d="
  M 608.26 446.80
  Q 603.88 453.26 598.85 457.86
  Q 577.09 477.78 548.97 487.97
  Q 530.90 494.53 514.25 499.55
  Q 488.89 504.41 463.28 509.64
  Q 454.53 511.42 443.67 513.46
  Q 423.58 517.23 403.31 522.58
  Q 383.33 527.84 367.82 536.59
  Q 350.72 546.23 338.65 562.73
  Q 323.81 583.00 324.98 609.29
  Q 326.04 633.24 337.59 652.69
  Q 343.53 662.70 353.83 676.12
  Q 344.35 670.47 337.17 663.84
  Q 326.00 653.13 318.56 641.92
  Q 308.56 626.85 305.77 607.52
  Q 301.45 577.55 317.93 551.45
  Q 325.60 539.33 338.38 528.14
  C 350.69 517.36 365.25 510.12 381.12 505.69
  Q 398.08 500.95 416.00 497.69
  Q 445.77 492.27 481.52 484.62
  Q 524.92 475.34 567.24 462.10
  C 580.79 457.86 594.66 452.12 608.26 446.80
  Z"
/>
<path fill="#136ba2" d="
  M 655.41 504.23
  Q 646.12 518.47 631.24 529.78
  Q 607.07 548.13 579.60 557.80
  Q 563.45 563.48 547.45 567.32
  Q 538.45 569.49 528.94 571.12
  Q 518.50 572.91 508.98 575.09
  Q 491.40 579.10 474.43 583.50
  Q 471.57 584.24 468.56 585.26
  Q 468.00 585.44 468.03 586.03
  Q 468.05 586.33 468.28 586.52
  A 0.57 0.56 -23.8 0 0 468.60 586.64
  L 470.72 586.74
  Q 467.89 587.51 464.98 587.99
  Q 449.51 590.57 436.10 597.57
  Q 415.00 608.57 403.32 630.47
  Q 395.83 644.53 397.13 660.49
  Q 398.59 678.48 409.15 692.28
  Q 406.51 692.20 403.57 689.18
  Q 391.49 676.78 384.15 665.91
  Q 376.80 655.03 372.48 640.55
  C 371.94 638.74 372.24 636.64 371.47 635.00
  Q 371.31 634.66 370.95 634.61
  Q 370.73 634.58 370.53 634.48
  L 370.84 634.24
  Q 371.20 633.96 371.19 633.50
  C 370.81 604.89 395.85 581.35 420.45 570.86
  Q 431.75 566.05 443.24 563.13
  Q 462.60 558.20 482.43 554.17
  C 496.00 551.41 508.83 548.50 522.01 545.65
  Q 531.92 543.51 541.46 541.15
  Q 573.60 533.18 591.00 528.29
  Q 621.52 519.69 655.41 504.23
  Z"
/>
<path fill="#09273e" d="
  M 478.24 639.82
  L 476.36 639.61
  Q 475.43 639.50 476.29 639.13
  Q 477.31 638.68 478.44 638.68
  Q 481.66 638.68 484.17 637.35
  Q 484.61 637.11 485.10 637.13
  Q 488.45 637.21 491.88 636.41
  C 502.42 633.93 513.34 632.41 524.27 630.66
  Q 537.76 628.49 550.21 626.42
  C 553.80 625.83 557.30 624.35 560.86 623.55
  Q 564.69 622.69 568.51 621.38
  Q 576.18 618.74 583.42 615.75
  Q 589.43 613.27 596.99 608.86
  C 608.58 602.11 617.87 593.66 627.08 583.34
  Q 628.33 581.94 628.07 580.79
  Q 629.18 580.07 629.74 579.91
  Q 645.96 575.38 659.74 570.19
  Q 689.36 559.04 715.31 539.83
  Q 718.74 537.28 724.85 531.76
  Q 725.95 530.77 726.85 530.76
  C 729.29 530.75 728.95 533.66 728.37 535.23
  Q 723.71 547.98 716.51 559.00
  Q 709.70 569.42 701.63 578.89
  Q 688.27 594.58 665.09 608.23
  C 648.07 618.26 628.44 625.41 608.51 629.71
  Q 566.81 638.72 524.00 638.67
  Q 506.00 638.64 488.01 638.78
  Q 485.99 638.79 478.24 639.82
  Z"
/>
<path fill="#09273e" d="
  M 337.17 663.84
  Q 344.35 670.47 353.83 676.12
  Q 362.12 684.30 371.88 690.38
  C 384.54 698.25 399.37 706.15 414.23 710.29
  Q 417.95 711.33 414.80 709.10
  Q 412.85 707.72 411.16 706.32
  Q 389.98 688.78 378.59 667.59
  Q 371.50 654.39 370.63 638.75
  Q 370.57 637.57 370.25 636.40
  Q 370.02 635.53 370.07 634.54
  Q 370.28 634.60 370.53 634.48
  Q 370.73 634.58 370.95 634.61
  Q 371.31 634.66 371.47 635.00
  C 372.24 636.64 371.94 638.74 372.48 640.55
  Q 376.80 655.03 384.15 665.91
  Q 391.49 676.78 403.57 689.18
  Q 406.51 692.20 409.15 692.28
  Q 422.05 706.87 439.47 715.56
  Q 445.80 718.71 453.79 721.15
  Q 461.18 723.40 468.71 725.35
  Q 468.83 725.38 468.87 725.26
  L 468.87 725.25
  Q 468.93 725.06 468.75 725.00
  Q 454.05 719.90 442.81 709.16
  Q 439.04 703.08 436.25 697.19
  Q 433.57 691.55 433.38 686.89
  Q 433.07 679.15 436.72 671.96
  Q 437.48 670.48 440.87 668.43
  Q 452.82 664.48 461.76 673.20
  C 463.62 675.87 466.30 679.90 468.88 679.75
  Q 477.34 679.26 483.17 680.41
  Q 488.95 681.55 495.02 682.86
  Q 505.13 685.05 517.46 684.23
  Q 541.76 682.63 562.78 669.80
  Q 572.93 663.60 579.65 654.84
  Q 588.53 653.41 598.45 651.61
  Q 627.14 646.42 654.30 633.88
  Q 663.43 629.67 673.24 622.80
  A 1.39 1.38 -28.5 0 1 675.32 623.41
  Q 675.74 624.44 675.32 625.54
  C 672.27 633.56 666.67 640.71 661.20 646.98
  Q 656.68 652.19 652.38 656.53
  Q 647.48 661.47 642.71 665.23
  Q 633.40 672.54 622.94 678.17
  C 614.02 682.97 604.54 687.45 594.69 690.41
  C 566.32 698.93 537.18 701.30 508.07 697.20
  Q 495.07 695.37 482.78 692.67
  C 476.01 691.18 468.14 696.66 473.35 704.01
  C 483.88 718.90 504.29 725.44 521.74 726.88
  Q 538.13 728.24 556.17 724.71
  C 562.13 723.54 568.17 721.62 574.12 719.83
  Q 575.40 719.45 574.73 720.61
  Q 574.24 721.48 573.15 722.36
  Q 563.75 730.03 554.47 734.89
  C 540.51 742.20 526.14 748.45 510.69 752.48
  Q 462.06 765.16 416.54 755.86
  Q 408.18 754.16 397.44 750.97
  C 376.75 744.82 358.08 735.48 340.06 722.69
  C 325.85 712.59 313.64 700.11 302.73 686.34
  C 286.42 665.74 273.97 639.88 269.90 613.76
  Q 265.28 584.13 272.63 555.21
  L 273.20 555.14
  Q 273.84 555.07 273.71 555.70
  Q 273.05 559.09 273.10 560.36
  Q 273.72 577.54 278.29 591.02
  Q 283.75 607.15 291.62 619.54
  Q 295.08 624.99 300.86 632.25
  C 309.41 642.99 318.44 650.35 330.25 660.10
  Q 334.19 663.35 337.17 663.84
  Z"
/>
<path fill="#136ba2" d="
  M 628.07 580.79
  Q 628.33 581.94 627.08 583.34
  C 617.87 593.66 608.58 602.11 596.99 608.86
  Q 589.43 613.27 583.42 615.75
  Q 576.18 618.74 568.51 621.38
  Q 564.69 622.69 560.86 623.55
  C 557.30 624.35 553.80 625.83 550.21 626.42
  Q 537.76 628.49 524.27 630.66
  C 513.34 632.41 502.42 633.93 491.88 636.41
  Q 488.45 637.21 485.10 637.13
  Q 484.61 637.11 484.17 637.35
  Q 481.66 638.68 478.44 638.68
  Q 477.31 638.68 476.29 639.13
  Q 475.43 639.50 476.36 639.61
  L 478.24 639.82
  Q 466.53 641.76 456.73 648.21
  C 449.92 652.68 442.85 660.14 440.87 668.43
  Q 437.48 670.48 436.72 671.96
  Q 433.07 679.15 433.38 686.89
  Q 433.57 691.55 436.25 697.19
  Q 439.04 703.08 442.81 709.16
  Q 429.69 697.66 422.83 682.39
  C 413.39 661.38 418.82 640.59 435.53 625.29
  C 450.62 611.48 470.68 606.97 490.33 604.35
  C 507.50 602.07 525.84 600.64 543.65 598.02
  Q 569.81 594.18 585.11 591.08
  C 599.14 588.23 613.78 585.31 627.48 580.72
  Q 627.64 580.67 628.07 580.79
  Z"
/>
<path fill="#136ba2" d="
  M 579.65 654.84
  Q 572.93 663.60 562.78 669.80
  Q 541.76 682.63 517.46 684.23
  Q 505.13 685.05 495.02 682.86
  Q 488.95 681.55 483.17 680.41
  Q 477.34 679.26 468.88 679.75
  C 466.30 679.90 463.62 675.87 461.76 673.20
  Q 462.36 669.36 465.55 667.05
  Q 478.77 657.47 495.26 657.61
  Q 512.75 657.75 530.25 657.75
  Q 554.49 657.75 579.65 654.84
  Z"
/>
</svg>
